<svg width="1972" height="744" viewBox="0 0 1972 744" fill="none" xmlns="http://www.w3.org/2000/svg">
<circle cx="544.86" cy="630.925" r="22.8605" fill="#F7A551"/>
<circle cx="226.86" cy="644.86" r="22.8605" fill="#F7A551"/>
<circle cx="625.751" cy="604.547" r="22.8605" fill="#F7A551"/>
<circle cx="646.853" cy="641.476" r="8.79249" fill="#F7A551"/>
<circle cx="887.767" cy="599.272" r="22.8605" fill="#F7A551"/>
<circle cx="870.182" cy="632.683" r="10.551" fill="#F7A551"/>
<circle cx="1130.44" cy="572.894" r="29.8945" fill="#F7A551"/>
<circle cx="131.143" cy="621.318" r="29.8945" transform="rotate(-14.2087 131.143 621.318)" fill="#F7A551"/>
<circle cx="1234.19" cy="627.408" r="15.8265" fill="#F7A551"/>
<circle cx="1948.13" cy="666.143" r="15.8265" transform="rotate(10.9558 1948.13 666.143)" fill="#F7A551"/>
<circle cx="1529.62" cy="644.993" r="15.8265" fill="#F7A551"/>
<circle cx="1503.24" cy="602.789" r="28.136" fill="#F7A551"/>
<circle cx="1737.12" cy="653.785" r="19.3435" fill="#F7A551"/>
<circle cx="1100.55" cy="609.823" r="15.8265" fill="#F7A551"/>
<circle cx="111.227" cy="664.454" r="15.8265" transform="rotate(-14.2087 111.227 664.454)" fill="#F7A551"/>
<path d="M1234 635V678" stroke="#F7A551" stroke-width="5" stroke-linecap="round" stroke-linejoin="bevel"/>
<path d="M1946.5 673.561L1938.33 715.777" stroke="#F7A551" stroke-width="5" stroke-linecap="round" stroke-linejoin="bevel"/>
<path d="M1502.36 623.012L1497.53 655.104M1492.69 687.197L1497.53 655.104M1497.53 655.104C1504.71 655.544 1520.47 655.368 1526.1 651.148" stroke="#F7A551" stroke-width="5" stroke-linecap="round" stroke-linejoin="bevel"/>
<path d="M637.181 679.284L633.664 647.631M630.147 615.978L633.664 647.631M633.664 647.631L645.095 641.476" stroke="#F7A551" stroke-width="5" stroke-linecap="round" stroke-linejoin="bevel"/>
<path d="M549.257 690.714L546.619 642.355" stroke="#F7A551" stroke-width="5" stroke-linecap="round" stroke-linejoin="bevel"/>
<path d="M231.257 704.649L228.619 656.291" stroke="#F7A551" stroke-width="5" stroke-linecap="round" stroke-linejoin="bevel"/>
<path d="M1735.36 667.853L1729.21 710.057" stroke="#F7A551" stroke-width="5" stroke-linecap="round" stroke-linejoin="bevel"/>
<path d="M1122.53 677.525C1124.58 644.407 1131.5 577.994 1142.75 577.291" stroke="#F7A551" stroke-width="5" stroke-linecap="round" stroke-linejoin="bevel"/>
<path d="M149.153 724.69C143.013 692.081 133.417 626.002 144.155 622.558" stroke="#F7A551" stroke-width="5" stroke-linecap="round" stroke-linejoin="bevel"/>
<path d="M1126.04 639.717C1105.82 639.717 1094.57 630.221 1098.79 613.34" stroke="#F7A551" stroke-width="5" stroke-linecap="round" stroke-linejoin="bevel"/>
<path d="M143.283 687.175C123.679 692.139 110.438 685.696 110.386 668.295" stroke="#F7A551" stroke-width="5" stroke-linecap="round" stroke-linejoin="bevel"/>
<path d="M888.647 641.476L875.458 633.563" stroke="#F7A551" stroke-width="5" stroke-linecap="round" stroke-linejoin="bevel"/>
<path d="M888.646 669.612V610.702" stroke="#F7A551" stroke-width="5" stroke-linecap="round" stroke-linejoin="bevel"/>
<path d="M448.55 671.442C446.206 650.047 441.868 601.805 443.275 580" stroke="#E17B16" stroke-width="7" stroke-linecap="round" stroke-linejoin="bevel"/>
<path d="M75.5502 705.442C73.2055 684.047 68.8679 635.805 70.2747 614" stroke="#E17B16" stroke-width="7" stroke-linecap="round" stroke-linejoin="bevel"/>
<path d="M443.17 628.532C433.498 627.653 412.924 619.916 408 596" stroke="#E17B16" stroke-width="7" stroke-linecap="round" stroke-linejoin="bevel"/>
<circle cx="438.944" cy="535.944" r="65.9436" fill="#E17B16"/>
<circle cx="65.9436" cy="569.944" r="65.9436" fill="#E17B16"/>
<circle r="20.2227" transform="matrix(-1 0 0 1 409.049 585.182)" fill="#E17B16"/>
<path d="M1655.63 704.948C1658.26 690.73 1661.41 670.538 1663.89 648.676M1662.67 535.253C1670.97 559.246 1668.64 606.996 1663.89 648.676M1663.89 648.676L1691.68 638.125" stroke="#E17B16" stroke-width="4" stroke-linecap="round" stroke-linejoin="bevel"/>
<circle cx="1663.55" cy="518.547" r="61.5474" fill="#E17B16"/>
<circle cx="1700.48" cy="636.367" r="24.619" fill="#E17B16"/>
<circle r="196.952" transform="matrix(-1 0 0 1 1720.97 196.952)" fill="#DF7B1D"/>
<circle r="50" transform="matrix(-1 0 0 1 1899.92 555)" fill="#DF7B1D"/>
<circle r="116.061" transform="matrix(-1 0 0 1 1283.1 369.284)" fill="#DF7B1D"/>
<circle r="56.2719" transform="matrix(-1 0 0 1 1541.6 425.556)" fill="#DF7B1D"/>
<circle r="50.9964" transform="matrix(-1 0 0 1 1218.04 499.413)" fill="#DF7B1D"/>
<circle r="98.4758" transform="matrix(-1 0 0 1 665.868 400.937)" fill="#DF7B1D"/>
<circle r="43.9624" transform="matrix(-1 0 0 1 576.956 554.962)" fill="#DF7B1D"/>
<circle r="49.2379" transform="matrix(-1 0 0 1 297.68 462.238)" fill="#DF7B1D"/>
<circle r="94.9589" transform="matrix(-1 0 0 1 216.959 344.959)" fill="#DF7B1D"/>
<path d="M206.418 715C201.418 705 174.418 644 163.918 567C162.4 555.872 162.242 543.335 163.104 530M206.418 356C203.508 363.357 200.176 372.344 196.677 382.5M163.104 530C180.209 534.333 223.118 538.1 257.918 518.5C275.222 508.754 286.073 497.78 292.61 488C294.106 485.761 295.377 483.585 296.446 481.5M163.104 530C165.51 492.817 175.858 449.42 186.836 413C190.125 402.089 193.471 391.804 196.677 382.5M301.418 464.5C301.418 468.324 300.102 474.377 296.446 481.5M196.677 382.5L232.918 371M296.446 481.5L276.918 469" stroke="#663107" stroke-width="13" stroke-linecap="round" stroke-linejoin="bevel"/>
<path d="M1712.17 227.725C1712.41 246.141 1713.41 274.104 1715.59 304.22M1817.68 729.776C1826.48 705.157 1829.11 677.901 1817.68 627.784C1816.15 621.07 1813.9 613.695 1811.09 605.802M1763.7 499.413C1752.05 474.211 1741.19 449.328 1734.15 427.315C1724.54 397.201 1718.79 348.394 1715.59 304.22M1763.7 499.413C1753.56 504.689 1697.23 505.568 1656.78 499.413C1624.8 494.546 1577.6 470.617 1552.15 454.151M1763.7 499.413C1781.07 536.982 1800.22 575.261 1811.09 605.802M1537.2 443.141C1540.21 445.962 1545.42 449.795 1552.15 454.151M1811.09 605.802C1831.46 599.354 1877.65 582.414 1899.45 566.236M1715.59 304.22C1734.09 302.755 1773.19 289.8 1781.63 249.707M1552.15 454.151L1559.18 421.16M1283.1 382.473V435.228M1283.1 694.606V536.342M1283.1 435.228L1240.02 416.764M1283.1 435.228V536.342M1283.1 536.342L1234.74 506.436M1216.28 495.017L1234.74 506.436M1234.74 506.436L1216.28 516.998M679.936 707.795C679.449 688.806 677.829 647.611 674.876 612.836M667.626 400.058C666.68 415.983 666.074 430.889 665.745 444.9M665.745 444.9C664.243 509.02 668.572 554.37 672.902 592.614C673.616 598.926 674.274 605.748 674.876 612.836M665.745 444.9L701.917 439.624M674.876 612.836L602.562 583.584M577.064 573.27L602.562 583.584M602.562 583.584L592.011 556.564" stroke="#663107" stroke-width="13" stroke-linecap="round" stroke-linejoin="bevel"/>
<path d="M945.457 671.037C567.819 671.704 212.112 679.412 46.8439 692.442C20.0606 694.554 0 717.134 0 744H1972C1972 717.284 1951.84 694.956 1925.19 693.047C1728.81 678.971 1330.35 670.358 945.457 671.037Z" fill="black"/>
</svg>
