<svg width="1915" height="737" viewBox="0 0 1915 737" fill="none" xmlns="http://www.w3.org/2000/svg">
<circle cx="492.86" cy="630.925" r="22.8605" fill="#F7A551"/>
<circle cx="174.86" cy="644.86" r="22.8605" fill="#F7A551"/>
<circle cx="573.751" cy="604.547" r="22.8605" fill="#F7A551"/>
<circle cx="594.853" cy="641.476" r="8.79249" fill="#F7A551"/>
<circle cx="835.767" cy="599.272" r="22.8605" fill="#F7A551"/>
<circle cx="818.182" cy="632.683" r="10.551" fill="#F7A551"/>
<circle cx="1078.44" cy="572.894" r="29.8945" fill="#F7A551"/>
<circle cx="79.1427" cy="621.318" r="29.8945" transform="rotate(-14.2087 79.1427 621.318)" fill="#F7A551"/>
<circle cx="1182.19" cy="627.408" r="15.8265" fill="#F7A551"/>
<circle cx="1896.13" cy="666.143" r="15.8265" transform="rotate(10.9558 1896.13 666.143)" fill="#F7A551"/>
<circle cx="1477.62" cy="644.993" r="15.8265" fill="#F7A551"/>
<circle cx="1451.24" cy="602.789" r="28.136" fill="#F7A551"/>
<circle cx="1685.12" cy="653.785" r="19.3435" fill="#F7A551"/>
<circle cx="1048.55" cy="609.823" r="15.8265" fill="#F7A551"/>
<circle cx="59.227" cy="664.454" r="15.8265" transform="rotate(-14.2087 59.227 664.454)" fill="#F7A551"/>
<path d="M1182 635V678" stroke="#F7A551" stroke-width="5" stroke-linecap="round" stroke-linejoin="bevel"/>
<path d="M1894.5 673.561L1886.33 715.777" stroke="#F7A551" stroke-width="5" stroke-linecap="round" stroke-linejoin="bevel"/>
<path d="M1450.36 623.012L1445.53 655.104M1440.69 687.197L1445.53 655.104M1445.53 655.104C1452.71 655.544 1468.47 655.368 1474.1 651.148" stroke="#F7A551" stroke-width="5" stroke-linecap="round" stroke-linejoin="bevel"/>
<path d="M585.182 679.284L581.665 647.631M578.148 615.978L581.665 647.631M581.665 647.631L593.095 641.476" stroke="#F7A551" stroke-width="5" stroke-linecap="round" stroke-linejoin="bevel"/>
<path d="M497.257 690.714L494.619 642.355" stroke="#F7A551" stroke-width="5" stroke-linecap="round" stroke-linejoin="bevel"/>
<path d="M179.257 704.649L176.619 656.291" stroke="#F7A551" stroke-width="5" stroke-linecap="round" stroke-linejoin="bevel"/>
<path d="M1683.36 667.853L1677.21 710.057" stroke="#F7A551" stroke-width="5" stroke-linecap="round" stroke-linejoin="bevel"/>
<path d="M1070.53 677.525C1072.58 644.407 1079.5 577.994 1090.75 577.291" stroke="#F7A551" stroke-width="5" stroke-linecap="round" stroke-linejoin="bevel"/>
<path d="M97.1536 724.69C91.0133 692.081 81.4173 626.002 92.1547 622.558" stroke="#F7A551" stroke-width="5" stroke-linecap="round" stroke-linejoin="bevel"/>
<path d="M1074.04 639.717C1053.82 639.717 1042.57 630.221 1046.79 613.34" stroke="#F7A551" stroke-width="5" stroke-linecap="round" stroke-linejoin="bevel"/>
<path d="M91.2829 687.175C71.6788 692.139 58.438 685.696 58.3856 668.295" stroke="#F7A551" stroke-width="5" stroke-linecap="round" stroke-linejoin="bevel"/>
<path d="M836.647 641.476L823.458 633.563" stroke="#F7A551" stroke-width="5" stroke-linecap="round" stroke-linejoin="bevel"/>
<path d="M836.647 669.612V610.702" stroke="#F7A551" stroke-width="5" stroke-linecap="round" stroke-linejoin="bevel"/>
<path d="M396.55 671.442C394.206 650.047 389.868 601.805 391.275 580" stroke="#E17B16" stroke-width="7" stroke-linecap="round" stroke-linejoin="bevel"/>
<path d="M23.5502 705.442C21.2055 684.047 16.8679 635.805 18.2747 614" stroke="#E17B16" stroke-width="7" stroke-linecap="round" stroke-linejoin="bevel"/>
<path d="M391.17 628.532C381.498 627.653 360.924 619.916 356 596" stroke="#E17B16" stroke-width="7" stroke-linecap="round" stroke-linejoin="bevel"/>
<circle cx="386.944" cy="535.944" r="65.9436" fill="#E17B16"/>
<circle cx="13.9436" cy="569.944" r="65.9436" fill="#E17B16"/>
<circle r="20.2227" transform="matrix(-1 0 0 1 357.049 585.182)" fill="#E17B16"/>
<path d="M1603.63 704.948C1606.26 690.73 1609.41 670.538 1611.89 648.676M1610.67 535.253C1618.97 559.246 1616.64 606.996 1611.89 648.676M1611.89 648.676L1639.68 638.125" stroke="#E17B16" stroke-width="4" stroke-linecap="round" stroke-linejoin="bevel"/>
<circle cx="1611.55" cy="518.547" r="61.5474" fill="#E17B16"/>
<circle cx="1648.48" cy="636.367" r="24.619" fill="#E17B16"/>
<circle r="196.952" transform="matrix(-1 0 0 1 1668.97 196.952)" fill="#DF7B1D"/>
<circle r="50" transform="matrix(-1 0 0 1 1847.92 555)" fill="#DF7B1D"/>
<circle r="116.061" transform="matrix(-1 0 0 1 1231.1 369.284)" fill="#DF7B1D"/>
<circle r="56.2719" transform="matrix(-1 0 0 1 1489.6 425.556)" fill="#DF7B1D"/>
<circle r="50.9964" transform="matrix(-1 0 0 1 1166.04 499.413)" fill="#DF7B1D"/>
<circle r="98.4758" transform="matrix(-1 0 0 1 613.868 400.937)" fill="#DF7B1D"/>
<circle r="43.9624" transform="matrix(-1 0 0 1 524.955 554.962)" fill="#DF7B1D"/>
<circle r="49.2379" transform="matrix(-1 0 0 1 245.68 462.238)" fill="#DF7B1D"/>
<circle r="94.9589" transform="matrix(-1 0 0 1 164.959 344.959)" fill="#DF7B1D"/>
<path d="M154.418 715C149.418 705 122.418 644 111.918 567C110.4 555.872 110.241 543.335 111.104 530M154.418 356C151.508 363.357 148.175 372.344 144.676 382.5M111.104 530C128.209 534.333 171.118 538.1 205.918 518.5C223.222 508.754 234.073 497.78 240.609 488C242.106 485.761 243.376 483.585 244.446 481.5M111.104 530C113.51 492.817 123.857 449.42 134.836 413C138.125 402.089 141.471 391.804 144.676 382.5M249.418 464.5C249.418 468.324 248.102 474.377 244.446 481.5M144.676 382.5L180.918 371M244.446 481.5L224.918 469" stroke="#663107" stroke-width="13" stroke-linecap="round" stroke-linejoin="bevel"/>
<path d="M1660.17 227.725C1660.41 246.141 1661.41 274.104 1663.59 304.22M1765.68 729.776C1774.48 705.157 1777.11 677.901 1765.68 627.784C1764.15 621.07 1761.9 613.695 1759.09 605.802M1711.7 499.413C1700.05 474.21 1689.19 449.327 1682.15 427.315C1672.54 397.201 1666.79 348.393 1663.59 304.22M1711.7 499.413C1701.56 504.689 1645.23 505.568 1604.78 499.413C1572.8 494.546 1525.6 470.617 1500.15 454.151M1711.7 499.413C1729.07 536.982 1748.22 575.261 1759.09 605.802M1485.2 443.141C1488.21 445.962 1493.42 449.795 1500.15 454.151M1759.09 605.802C1779.46 599.354 1825.65 582.414 1847.45 566.236M1663.59 304.22C1682.09 302.755 1721.19 289.8 1729.63 249.707M1500.15 454.151L1507.18 421.16M1231.1 382.473V435.228M1231.1 694.606V536.342M1231.1 435.228L1188.02 416.764M1231.1 435.228V536.342M1231.1 536.342L1182.74 506.436M1164.28 495.017L1182.74 506.436M1182.74 506.436L1164.28 516.998M627.936 707.795C627.449 688.806 625.829 647.611 622.876 612.836M615.626 400.058C614.68 415.983 614.073 430.889 613.745 444.9M613.745 444.9C612.243 509.02 616.572 554.37 620.902 592.614C621.616 598.926 622.274 605.748 622.876 612.836M613.745 444.9L649.917 439.624M622.876 612.836L550.562 583.584M525.064 573.27L550.562 583.584M550.562 583.584L540.011 556.564" stroke="#663107" stroke-width="13" stroke-linecap="round" stroke-linejoin="bevel"/>
</svg>
